<svg width="870" height="544" viewBox="0 0 870 544" fill="none" xmlns="http://www.w3.org/2000/svg">
<path d="M887.802 337.176C841.794 397.902 754.98 411.808 683.148 390.658C659.644 383.568 636.97 373.826 615.535 361.606C603.085 354.628 590.933 346.973 579.028 338.816C576.099 336.818 573.171 334.789 570.272 332.719C568.296 331.325 566.327 329.915 564.364 328.487C539.781 310.636 516.162 291.053 492.939 271.583C434.967 222.98 375.406 172.88 304.18 149.69C289.506 144.915 270.522 142.681 261.448 155.511C253.575 166.65 258.38 182.421 265.042 194.369C289.754 238.627 334.61 266.572 379.507 288.061C424.403 309.55 471.96 326.96 510.989 358.378C550.017 389.797 579.813 439.733 571.83 490.139C564.95 533.578 530.588 568.87 490.635 584.251C450.684 599.622 406.125 597.481 364.594 587.5C323.064 577.509 283.638 560.078 243.557 545.055C219.391 535.986 187.799 529.715 171.764 550.466C158.222 567.999 166.006 595.657 182.497 610.249C198.988 624.841 221.307 629.729 242.604 634.115C308.727 647.744 374.85 661.37 440.974 674.992C461.257 679.163 499.69 694.636 499.69 694.636C499.69 694.636 531.62 725.122 531.114 746.467C530.607 767.505 516.396 782.884 497.397 795.409C477.379 808.606 458.011 806.148 437.648 805.144C361.338 801.373 142.565 676.242 90.0932 660.246C56.3763 649.978 19.5123 634.894 5.29445 601.713C-12.408 560.406 16.7223 510.429 56.4855 491.564C96.2389 472.688 142.327 476.869 185.654 483.222C228.982 489.576 273.739 497.661 315.915 485.59C358.091 473.518 396.733 434.168 392.573 389.203C388.948 350.078 354.805 320.596 318.874 307.603C290.747 297.427 260.822 294.66 231.276 290.08C223.075 288.819 214.903 287.405 206.812 285.663C186.089 281.182 165.875 274.485 146.497 265.681C126.162 256.461 106.843 245.018 88.8721 231.547C74.5387 220.818 61.1437 208.813 48.8409 195.67C46.9643 193.662 45.1076 191.609 43.2707 189.512C41.5236 187.503 39.7958 185.454 38.1082 183.363C16.1465 156.279 -0.0769253 122.924 4.78839 88.5545C9.64304 54.277 35.5268 25.738 66.3446 12.027C84.1561 4.1058 103.368 0.560202 122.817 0.047833C137.039 -0.245528 151.257 0.810984 165.291 3.20403C230.233 13.9228 289.744 46.489 345.949 81.7503C402.143 117.012 456.909 155.716 517.998 180.853C579.088 206 648.627 216.647 710.6 193.908C772.573 171.179 823.486 109.162 820.458 41.355C861.561 77.887 896.49 123.806 911.958 177.461C927.427 231.116 921.211 293.072 887.802 337.176Z" fill="#EB828C"/>
</svg>
