<svg width="45" height="43" viewBox="0 0 45 43" fill="none" xmlns="http://www.w3.org/2000/svg">
<path d="M15.4195 16.0367C12.8891 16.0367 10.4558 16.0367 8.02249 16.0367C7.28652 16.0367 6.54906 16.0467 5.81309 16.0295C5.28015 16.018 4.89799 15.7203 4.88157 15.2171C4.84425 14.1574 4.86962 13.0962 4.86962 12.0034H30.1254C30.1254 13.1091 30.1612 14.1991 30.1105 15.2847C30.0866 15.7937 29.6641 16.0338 29.0267 16.0338C26.2246 16.0367 23.4211 16.0338 20.619 16.0338C20.304 16.0338 19.9876 16.0338 19.6218 16.0338C19.68 16.1805 19.7099 16.2797 19.7562 16.3717C20.3473 17.5508 20.931 18.7327 21.5431 19.9031C21.6177 20.0455 21.8342 20.208 21.9865 20.2094C26.2948 20.2238 30.6031 20.2195 34.9114 20.2166C34.9577 20.2166 35.0025 20.1965 34.9935 20.1979C34.6427 18.8089 34.2919 17.4228 33.9411 16.0381C33.8724 15.7692 33.7933 15.5003 33.7485 15.2286C33.6739 14.7843 33.8754 14.5211 34.3322 14.5197C36.7984 14.5096 39.2645 14.5082 41.7307 14.5197C42.2308 14.5226 42.4069 14.8231 42.2726 15.3752C41.9456 16.7096 41.6142 18.0425 41.2769 19.374C41.2097 19.6371 41.1097 19.8945 41.0141 20.1893C41.1261 20.1993 41.2589 20.2195 41.3918 20.2195C42.2726 20.2223 43.1533 20.2195 44.0341 20.2209C44.8582 20.2209 44.991 20.3474 44.991 21.1239C44.991 24.5015 44.991 27.8805 44.991 31.2581C44.991 34.975 44.9851 38.6934 45 42.4103C45.0015 42.8201 44.9104 42.9898 44.4461 42.9653C43.6952 42.9279 42.9399 42.9322 42.189 42.9639C41.7516 42.9826 41.6142 42.8589 41.6172 42.4232C41.6351 38.968 41.6277 35.5128 41.6277 32.0575V24.651H32.6632C31.9332 22.5618 30.7001 21.5826 28.9072 21.6272C27.1442 21.6717 25.9484 22.6711 25.3453 24.6366H3.36783V25.2247C3.36783 30.9317 3.36783 36.6401 3.36783 42.347C3.36783 42.7525 3.15834 42.9557 2.73935 42.9567C1.98696 42.9567 1.23308 42.9437 0.480692 42.9624C0.143312 42.9768 0 42.8977 0 42.5354C0.008957 35.3316 0.00597133 28.1278 0.008957 20.924C0.008957 20.3935 0.21049 20.2281 0.840465 20.2281C3.16331 20.2252 5.48467 20.2281 7.80752 20.2267C9.48845 20.2267 11.1709 20.2152 12.8518 20.2353C13.2131 20.2396 13.3877 20.1217 13.537 19.814C14.1356 18.5745 14.7626 17.348 15.4195 16.0381V16.0367ZM38.0479 18.517C38.6928 18.5055 39.2227 17.9793 39.2167 17.3552C39.2123 16.7326 38.6704 16.2135 38.0255 16.2135C37.3641 16.2135 36.8058 16.7671 36.8297 17.3998C36.8536 18.0267 37.4015 18.5285 38.0479 18.517ZM17.5094 14.7282C17.9274 14.7239 18.2708 14.3874 18.2589 13.9934C18.2469 13.6009 17.8827 13.2759 17.4706 13.2903C17.0765 13.3047 16.7496 13.6282 16.7466 14.0064C16.7436 14.4061 17.087 14.7325 17.508 14.7268L17.5094 14.7282Z" fill="#C75F69"/>
<path d="M30.1597 10.9322H4.84872C4.84872 10.7482 4.84872 10.5842 4.84872 10.4189C4.84872 7.36483 4.84872 4.31077 4.84872 1.25671C4.85021 0.274635 5.14132 0 6.17137 0C13.7311 0 21.2893 0 28.849 0C29.8686 0 30.1597 0.280387 30.1597 1.27109C30.1597 4.32515 30.1597 7.37921 30.1597 10.4333V10.9322Z" fill="#C75F69"/>
<path d="M32.1183 42.9452H29.5133C29.5133 42.1932 29.5133 41.4584 29.5133 40.7222C29.5133 40.5684 29.5103 40.4145 29.5133 40.2592C29.5178 39.9127 29.3551 39.6726 28.9908 39.6697C28.6266 39.6668 28.4579 39.9026 28.4579 40.2506C28.4579 40.9911 28.4579 41.7302 28.4579 42.4707C28.4579 42.6202 28.4579 42.7698 28.4579 42.9409H25.8544C25.8544 42.7784 25.8544 42.6174 25.8544 42.4549C25.8544 41.283 25.8589 40.1111 25.8514 38.9393C25.8484 38.5093 25.6215 38.2735 25.2692 38.3152C24.8826 38.3612 24.796 38.62 24.7975 38.9479C24.8019 40.1039 24.799 41.26 24.799 42.4175C24.799 42.5828 24.799 42.7482 24.799 42.9624H22.7478C21.7551 42.9624 20.7623 42.974 19.7711 42.9538C19.5591 42.9495 19.3501 42.8316 19.1411 42.7669C19.2411 42.5886 19.3098 42.383 19.4471 42.2392C19.7935 41.8754 20.1637 41.5346 20.5354 41.1953C21.5804 40.2391 22.088 39.0715 22.0641 37.6825C22.0521 36.9464 22.0626 36.2087 22.0626 35.4395H35.8907C35.8982 35.6077 35.9101 35.7845 35.9161 35.9614C35.9445 36.8845 35.9041 37.8163 36.0161 38.7308C36.1311 39.6754 36.661 40.4577 37.3671 41.122C37.8135 41.5418 38.2643 41.9588 38.6928 42.3959C38.7838 42.4894 38.8226 42.6691 38.8077 42.8014C38.8002 42.8647 38.6107 42.9538 38.5032 42.9553C36.7461 42.9653 34.989 42.9624 33.1767 42.9624V42.4276C33.1767 40.6086 33.1752 38.7883 33.1782 36.9694C33.1782 36.6746 33.1529 36.4028 32.8095 36.2979C32.4184 36.1785 32.1243 36.4503 32.1228 36.9435C32.1183 38.7624 32.1213 40.5828 32.1213 42.4017C32.1213 42.5685 32.1213 42.7353 32.1213 42.9466L32.1183 42.9452Z" fill="#C75F69"/>
<path d="M22.076 34.3467C22.076 33.5026 22.0372 32.7017 22.0865 31.9051C22.1357 31.1143 22.7866 30.5794 23.642 30.565C24.5347 30.5492 25.4274 30.5622 26.3784 30.5622C26.3784 30.3364 26.3784 30.1567 26.3784 29.9769C26.3784 28.3881 26.3545 26.8007 26.3858 25.2118C26.4232 23.2663 28.3653 22.0657 30.1179 22.8954C31.1405 23.3785 31.5928 24.2211 31.5973 25.2995C31.6018 26.8726 31.5973 28.4456 31.5988 30.0172C31.5988 30.1826 31.5988 30.3465 31.5988 30.5593C32.4632 30.5593 33.2753 30.5593 34.0874 30.5593C35.3115 30.5622 35.9056 31.1359 35.9101 32.3221C35.9131 32.9835 35.9101 33.6435 35.9101 34.3452H22.0745L22.076 34.3467ZM29.8985 25.2391C29.9059 24.7488 29.5178 24.3563 29.0117 24.3433C28.4833 24.3304 28.0653 24.7229 28.0698 25.2305C28.0727 25.7165 28.4773 26.1062 28.9804 26.1076C29.4835 26.109 29.891 25.7237 29.8985 25.2377V25.2391Z" fill="#C75F69"/>
<path d="M16.3301 35.4294V39.6971H4.45463V35.4294H16.3301ZM10.3722 38.0665C11.0619 38.0665 11.3306 37.9256 11.3276 37.5647C11.3246 37.2009 11.0485 37.0542 10.3677 37.0557C9.71687 37.0557 9.45562 37.1937 9.43771 37.5446C9.41979 37.9141 9.69298 38.0665 10.3707 38.0665H10.3722Z" fill="#C75F69"/>
<path d="M4.44118 34.3424V30.4961H16.3152V34.3424H4.44118ZM10.5722 31.9253C9.70491 31.9253 9.43919 32.0634 9.43769 32.4257C9.43769 32.7924 9.71536 32.9434 10.3916 32.9434C11.0544 32.9434 11.3694 32.7737 11.3216 32.407C11.25 31.8592 10.7977 31.9225 10.5722 31.9253Z" fill="#C75F69"/>
<path d="M4.45164 29.4162V25.682H16.3062V29.4162H4.45164ZM10.3767 28.0603C11.0574 28.0603 11.3247 27.9208 11.3291 27.5628C11.3336 27.199 11.053 27.0422 10.3901 27.0422C9.71836 27.0422 9.44368 27.1889 9.43771 27.5498C9.43174 27.9122 9.70343 28.0603 10.3752 28.0603H10.3767Z" fill="#C75F69"/>
<path d="M40.4812 13.4714H35.5832C35.5832 12.278 35.4981 11.1047 35.6071 9.94718C35.7175 8.78537 36.9461 7.92551 38.1434 8.00316C39.4228 8.08656 40.4334 9.02406 40.4737 10.2276C40.5095 11.3002 40.4812 12.3743 40.4812 13.47V13.4714Z" fill="#C75F69"/>
</svg>
