<svg width="45" height="49" viewBox="0 0 45 49" fill="none" xmlns="http://www.w3.org/2000/svg">
<path d="M24.0101 0C24.0184 0.157752 24.0323 0.314029 24.0323 0.47178C24.0323 6.16116 24.0323 11.8505 24.0323 17.5399C24.0323 17.7109 24.0323 17.882 24.0323 18.0839H20.9884C20.9745 17.9675 20.9481 17.848 20.9481 17.7286C20.9467 11.8977 20.9467 6.06533 20.9481 0.234416C20.9481 0.156277 20.962 0.0781386 20.9703 0C21.984 0 22.9963 0 24.0101 0V0Z" fill="#C75F69"/>
<path d="M27.1414 21.7462C30.8574 22.3757 34.361 23.4166 37.3424 25.8713C38.0284 26.436 38.6575 27.123 39.1782 27.8602C40.7224 30.0481 40.6974 32.547 39.174 34.7556C37.9423 36.541 36.2468 37.7027 34.3929 38.6197C31.4851 40.0587 28.3995 40.7619 25.2168 41.0317C21.6563 41.3339 18.1361 41.0833 14.67 40.1456C12.201 39.4778 9.83196 38.5342 7.81287 36.8447C7.00607 36.1694 6.24787 35.363 5.65492 34.474C4.26349 32.3893 4.34542 30.0245 5.74101 27.9339C6.71029 26.4832 8.01561 25.4497 9.45425 24.5843C11.7025 23.2308 15.1796 22.0647 17.8417 21.7816V22.2858C17.8417 24.1036 17.8417 25.9229 17.8417 27.7408C17.8417 28.9851 18.4305 29.622 19.5872 29.6235C21.523 29.6264 23.4587 29.6264 25.3959 29.6235C26.5513 29.622 27.14 28.9851 27.1414 27.7408C27.1428 25.9377 27.1414 24.1361 27.1414 22.333C27.1414 22.1605 27.1414 21.9895 27.1414 21.7462ZM6.2076 31.3012C6.23259 31.546 6.24092 31.7347 6.27286 31.9175C6.48255 33.125 7.13799 34.0494 7.96146 34.8573C9.22651 36.0987 10.7179 36.9552 12.3162 37.5862C18.1638 39.8921 24.1142 40.0808 30.1326 38.4635C32.4558 37.8384 34.6554 36.8904 36.555 35.2863C37.4146 34.5595 38.1534 33.7132 38.5311 32.5898C38.6658 32.1888 38.713 31.7568 38.806 31.3145H37.2994C37.1508 31.7288 37.0925 32.1608 36.8717 32.4483C36.3579 33.1146 35.8274 33.7987 35.1914 34.3177C33.575 35.6357 31.6878 36.3773 29.7326 36.9169C25.9514 37.9592 22.1173 38.114 18.2583 37.5553C15.7226 37.1882 13.2647 36.5041 11.0179 35.1595C9.52785 34.2676 8.11004 33.268 7.70317 31.3027H6.20899L6.2076 31.3012Z" fill="#C75F69"/>
<path d="M19.422 19.7734H25.5681V27.9544H19.422V19.7734Z" fill="#C75F69"/>
<path d="M3.13314 11.5173C3.57334 11.5173 3.98854 11.4997 4.40097 11.5291C4.49956 11.5365 4.65092 11.6854 4.67037 11.7916C5.02864 13.6993 5.92987 14.6134 7.72261 14.8331V16.4298C5.89099 16.6583 4.8495 17.7316 4.63565 19.7145H3.21923C3.03176 19.1484 2.91789 18.5867 2.66794 18.1016C2.1833 17.1581 1.39316 16.6199 0.379451 16.502C0.105888 16.4696 -0.0163127 16.3855 0.00173973 16.073C0.0253467 15.6661 0.00729431 15.2577 0.00729431 14.8537C2.08471 14.6267 3.02204 13.1671 3.13175 11.5159L3.13314 11.5173Z" fill="#C75F69"/>
<path d="M38.8074 9.04922C39.2351 9.04922 39.6642 9.03153 40.0905 9.06249C40.1808 9.06839 40.3155 9.24088 40.3349 9.35588C40.6516 11.1885 41.6305 12.1718 43.4163 12.3635V13.9528C41.5486 14.1857 40.4974 15.2723 40.2919 17.2582H38.8074C38.7491 16.9397 38.7255 16.6228 38.6311 16.3323C38.2089 15.0217 37.3619 14.2241 36.0551 14.0353C35.7621 13.9926 35.6372 13.9027 35.658 13.5724C35.683 13.1817 35.6635 12.7881 35.6635 12.3841C37.5479 12.1556 38.5825 11.0572 38.806 9.04922H38.8074Z" fill="#C75F69"/>
<path d="M27.1609 5.73207V4.14423C29.0147 3.9334 30.0423 2.84094 30.2728 0.865356H31.7573C31.9767 2.79818 32.989 3.92456 34.8734 4.1457V5.72764C33.0307 5.94142 31.985 7.03389 31.7614 9.02126H30.2784C30.0534 7.07811 29.0522 5.95911 27.1609 5.73354V5.73207Z" fill="#C75F69"/>
<path d="M16.2947 8.19577C14.5325 8.36679 13.3647 9.4858 13.148 11.4894H11.6761C11.4442 9.55804 10.4541 8.42871 8.57245 8.20609V6.61678C10.4068 6.39564 11.4428 5.31496 11.6622 3.33496H13.1661C13.2952 4.81665 13.959 5.86931 15.2824 6.39858C15.4476 6.46493 15.6295 6.54454 15.7976 6.53422C16.2683 6.50179 16.3322 6.76569 16.3003 7.17407C16.2725 7.51464 16.2947 7.85963 16.2947 8.19577Z" fill="#C75F69"/>
<path d="M14.7131 41.9309C16.3003 42.1963 17.8084 42.4484 19.3901 42.7123C19.2165 43.4509 19.0512 44.2117 18.854 44.9621C18.7429 45.3867 18.5999 45.8054 18.4374 46.2109C18.025 47.2429 17.0294 47.7898 15.9948 47.5554C15.1547 47.3652 14.3604 47.0379 14.0257 46.1165C13.8674 45.6816 13.7771 45.1361 13.873 44.6938C14.0799 43.7487 14.4284 42.8391 14.7131 41.9294V41.9309Z" fill="#C75F69"/>
<path d="M25.5403 42.7242C27.1734 42.4529 28.6815 42.2008 30.2853 41.934C30.5645 42.9055 30.8672 43.8904 31.1213 44.8914C31.1866 45.148 31.1269 45.4605 31.0658 45.7318C30.8269 46.7904 29.8785 47.5216 28.6856 47.5939C27.7344 47.6514 26.8526 47.0336 26.5263 46.0222C26.1777 44.9386 25.8722 43.8388 25.5403 42.7242Z" fill="#C75F69"/>
<path d="M24.0128 42.792C24.2794 43.9493 24.571 45.0757 24.7849 46.2183C24.8501 46.5633 24.7682 46.9849 24.6349 47.3181C24.1183 48.614 22.8741 48.8263 21.5341 48.4696C20.4995 48.1939 19.9885 47.066 20.2537 45.8644C20.4329 45.0506 20.6162 44.2383 20.8217 43.4318C21.0203 42.6534 20.8411 42.7861 21.6327 42.7905C22.4047 42.7949 23.1768 42.7905 24.0114 42.7905L24.0128 42.792Z" fill="#C75F69"/>
<path d="M31.7351 41.5329C32.9488 41.008 34.1 40.5068 35.2553 40.0173C35.3359 39.9834 35.4608 39.9908 35.5386 40.0335C37.0856 40.8812 37.2244 42.8435 35.8233 43.9478C35.365 44.309 34.9054 44.6452 34.2972 44.6407C33.4945 44.6348 32.8766 44.2736 32.5197 43.5203C32.2142 42.8775 31.9906 42.1904 31.7351 41.5344V41.5329Z" fill="#C75F69"/>
<path d="M13.2453 41.5285C12.9967 42.1698 12.7704 42.82 12.4954 43.4466C12.1135 44.3164 11.3095 44.7882 10.4055 44.6025C9.29319 44.3754 7.78651 43.1193 8.2642 41.5123C8.46694 40.8312 8.94602 40.4228 9.45149 40.0291C9.50981 39.9834 9.61396 39.9997 9.69589 39.9967C9.72228 39.9967 9.74866 40.0247 9.77643 40.0365C10.9151 40.526 12.0524 41.0155 13.2453 41.5285Z" fill="#C75F69"/>
<path d="M3.26068 29.9065C2.94407 31.4103 3.15792 32.7888 3.70782 34.2115C3.10099 34.3324 2.54136 34.5152 1.97618 34.5432C0.977747 34.5933 0.139005 33.7736 0.039023 32.7195C0.000140887 32.314 -0.00124776 31.8968 0.039023 31.4914C0.154281 30.2721 1.22631 29.4465 2.36362 29.678C2.65245 29.7369 2.93574 29.8225 3.26207 29.905L3.26068 29.9065Z" fill="#C75F69"/>
<path d="M41.7291 29.9536C42.9206 29.414 43.9398 29.6012 44.5536 30.449C45.1549 31.279 45.1535 33.0084 44.5203 33.7868C43.701 34.7923 42.7956 34.7156 41.3069 34.1288C41.8166 32.7902 42.036 31.4117 41.7291 29.9536Z" fill="#C75F69"/>
<path d="M7.97118 39.0766C7.34074 39.4776 6.73112 39.9302 6.07013 40.2693C5.37164 40.6275 4.63705 40.5243 4.0677 39.9671C3.28589 39.2019 2.98039 38.2052 3.19841 37.0892C3.31922 36.4729 3.70943 36.0233 4.26072 35.7697C4.35932 35.724 4.57039 35.7564 4.62733 35.836C5.53828 37.0921 6.66586 38.0858 7.9073 38.9468C7.92813 38.9616 7.93508 38.9999 7.97118 39.0766Z" fill="#C75F69"/>
<path d="M37.0605 39.0899C37.9409 38.2805 38.7963 37.5036 39.6392 36.7089C39.8489 36.5114 40.0489 36.2814 40.1891 36.0263C40.4252 35.5973 40.6779 35.6858 40.9848 35.9069C41.6569 36.3919 41.9902 37.25 41.8208 38.0948C41.818 38.1095 41.8152 38.1257 41.8125 38.142C41.3667 40.5952 39.5434 41.0139 38.1131 39.7976C37.7798 39.5131 37.3882 39.3052 37.0633 39.0885L37.0605 39.0899Z" fill="#C75F69"/>
<path d="M3.88577 28.0061C2.75542 27.0876 3.00815 25.5926 3.75524 24.4087C4.26904 23.5934 5.54104 23.101 6.94079 24.3394C5.69934 25.3552 4.62314 26.5259 3.88577 28.0061Z" fill="#C75F69"/>
<path d="M41.0959 27.9986C40.3585 26.5376 39.3115 25.364 38.0742 24.3733C38.9019 23.3899 40.3294 23.3118 41.1056 24.2612C41.8777 25.2048 42.3193 27.0816 41.0959 27.9986Z" fill="#C75F69"/>
</svg>
