<svg width="45" height="49" viewBox="0 0 45 49" fill="none" xmlns="http://www.w3.org/2000/svg">
<path d="M6.41149 48.624C5.63731 48.2996 5.37516 47.6743 5.37789 46.7998C5.39564 41.9599 5.39018 37.12 5.37925 32.2801C5.37925 31.8908 5.45299 31.6814 5.81208 31.4911C6.24764 31.2596 6.64633 30.9042 6.99314 30.5296C12.0232 25.1146 17.0424 19.6877 22.0629 14.2609C22.1858 14.1267 22.2827 13.9645 22.3646 13.8524C27.2104 19.0876 32.0002 24.2622 36.8049 29.4516C35.6976 30.3954 35.389 31.9276 34.7063 33.2195C34.5616 33.4938 34.3554 33.7577 34.1233 33.948C33.599 34.3771 33.0392 34.7546 32.4972 35.1587C30.1965 36.8752 30.1842 40.3201 32.4726 42.0558C32.5081 42.0823 32.5436 42.1133 32.5818 42.1339C34.0523 42.9273 34.989 44.1926 35.5461 45.856C35.968 47.1169 36.7845 48.0209 37.9915 48.4648C38.0515 48.4869 38.0925 48.568 38.1417 48.6226H27.5941C27.5872 48.4648 27.5736 48.3084 27.5736 48.1507C27.5736 44.4787 27.5845 40.8082 27.5695 37.1362C27.5545 33.4348 24.6216 30.7862 21.2819 31.4336C18.8078 31.9129 17.0233 34.2783 17.0137 37.1377C17 40.8097 17.0096 44.4802 17.0123 48.1521C17.0123 48.3084 17.0355 48.4662 17.0478 48.6226H6.41149V48.624Z" fill="#C75F69"/>
<path d="M44.9986 24.4112C44.8403 24.6339 44.7023 24.8772 44.5221 25.0748C43.4312 26.2678 42.3307 27.4505 41.2315 28.6362C40.7018 29.2069 40.4355 29.2084 39.9098 28.6406C34.223 22.4985 28.5376 16.3565 22.8535 10.2115C22.7306 10.0787 22.6432 9.90473 22.4684 9.64518C22.2827 9.9121 22.1926 10.0802 22.0697 10.2129C16.428 16.3137 10.7821 22.4101 5.1376 28.5079C4.50679 29.1892 4.28833 29.1877 3.65752 28.5079C2.55976 27.3222 1.46062 26.1366 0.364217 24.9495C-0.120494 24.4245 -0.12186 24.1148 0.362852 23.5913C1.84293 21.9898 3.32437 20.3897 4.80581 18.7912C4.89729 18.6924 4.9956 18.601 5.09118 18.5051C5.38474 18.7971 5.64143 19.1009 5.94181 19.3442C7.91479 20.9398 10.6988 20.2496 11.8348 17.8784C12.2786 16.9523 12.6595 15.9922 13.1033 15.0661C13.2371 14.7874 13.4528 14.5279 13.6876 14.3391C14.3103 13.8392 14.9656 13.3894 15.6019 12.9101C17.6227 11.3868 17.9872 8.64977 16.4512 6.55867C16.4157 6.51 16.3815 6.45986 16.3242 6.37728C16.4211 6.26373 16.5126 6.14723 16.6123 6.0381C18.3409 4.1682 20.0708 2.29978 21.8008 0.431348C22.3319 -0.142304 22.5913 -0.143779 23.1211 0.426924C30.2689 8.14543 37.4153 15.8639 44.559 23.5869C44.7297 23.7727 44.8539 24.0086 45 24.221V24.4112H44.9986Z" fill="#C75F69"/>
<path d="M44.9986 38.9383C44.6914 39.2819 44.3924 39.6343 44.0729 39.9647C43.9268 40.1151 43.7479 40.2404 43.5677 40.3392C42.2282 41.0751 41.3462 42.2209 40.8601 43.7531C40.714 44.2132 40.4751 44.638 40.2771 45.0774C40.0573 45.5641 39.6886 45.828 39.1943 45.8266C38.7001 45.8266 38.3341 45.5582 38.1157 45.07C37.6719 44.0746 37.2446 43.0704 36.7762 42.0882C36.6438 41.8095 36.4281 41.547 36.1932 41.3612C35.4982 40.8097 34.7719 40.3039 34.0619 39.7744C33.1825 39.1197 33.1866 38.1184 34.066 37.4562C34.2817 37.294 34.4865 37.1067 34.72 36.9799C36.1509 36.2057 37.0725 34.9743 37.5927 33.3551C37.7265 32.9407 37.9355 32.5529 38.1184 32.1577C38.3396 31.6784 38.6932 31.4115 39.1998 31.4115C39.7064 31.4115 40.0614 31.6799 40.2784 32.1621C40.7331 33.1693 41.1687 34.1869 41.637 35.1867C41.749 35.4271 41.9306 35.6571 42.1313 35.8149C42.8044 36.3458 43.5226 36.8118 44.1807 37.3619C44.5016 37.6302 44.7282 38.0284 44.9972 38.3676V38.9368L44.9986 38.9383Z" fill="#C75F69"/>
<path d="M19.597 48.6239C19.6161 48.4219 19.6502 48.2199 19.6502 48.0178C19.653 44.4122 19.6489 40.8066 19.6543 37.2025C19.6571 35.775 20.3671 34.6808 21.5099 34.3062C23.0678 33.7945 24.7185 34.8857 24.8715 36.6406C24.9766 37.844 24.8919 39.068 24.8919 40.3613C24.5178 40.3613 24.1314 40.3583 23.7437 40.3613C22.8835 40.3686 22.3018 40.9393 22.2977 41.777C22.2936 42.6175 22.8766 43.203 23.7286 43.2118C24.1082 43.2162 24.4878 43.2118 24.9588 43.2118V48.6239H19.597Z" fill="#C75F69"/>
<path d="M14.7595 9.31928C14.739 9.83394 14.5315 10.2439 14.126 10.5418C13.2548 11.1818 12.381 11.8174 11.5235 12.4781C11.3324 12.6255 11.1644 12.8467 11.0593 13.0724C10.5555 14.1592 10.0653 15.2549 9.59151 16.358C9.33345 16.9581 8.94159 17.346 8.31897 17.3489C7.69636 17.3534 7.29767 16.9655 7.03961 16.3683C6.55626 15.2534 6.06336 14.1415 5.55544 13.0384C5.45713 12.8246 5.29601 12.6152 5.11578 12.4781C4.28017 11.838 3.4268 11.226 2.58299 10.5978C1.61494 9.87671 1.6204 8.76627 2.59392 8.0422C3.34078 7.48624 4.08082 6.91701 4.84271 6.38613C5.23867 6.11036 5.51584 5.77266 5.70972 5.30518C6.13299 4.28175 6.60132 3.28044 7.04371 2.26586C7.30313 1.67303 7.69636 1.29404 8.3299 1.30289C8.94159 1.31173 9.3239 1.67746 9.57649 2.25701C10.0626 3.37187 10.5527 4.48378 11.0634 5.58537C11.1685 5.81247 11.3419 6.02925 11.5331 6.17525C12.3796 6.82706 13.2412 7.45232 14.1014 8.08349C14.5042 8.37843 14.7308 8.77659 14.7595 9.31633V9.31928Z" fill="#C75F69"/>
<path d="M30.0067 3.68889C30.1651 3.67857 30.3234 3.6594 30.4818 3.6594C32.0629 3.65793 33.6441 3.65498 35.2252 3.6594C36.3093 3.66235 36.8104 4.20798 36.8118 5.37299C36.8131 7.25468 36.8118 9.13491 36.8118 10.8927C34.6108 8.51259 32.3592 6.07936 30.1063 3.64465C30.0722 3.6594 30.0394 3.67415 30.0053 3.68889H30.0067Z" fill="#C75F69"/>
</svg>
